<svg width="20" height="20" viewBox="0 0 20 20" fill="none" xmlns="http://www.w3.org/2000/svg">
<g clip-path="url(#clip0_1_53)">
<path d="M19.6049 4.26852C19.1633 4.45519 18.7048 4.60247 18.2344 4.70908C18.7527 4.23955 19.1425 3.65227 19.3623 2.99675C19.4251 2.80961 19.2119 2.64779 19.0346 2.74799C18.3802 3.11801 17.6752 3.3956 16.9393 3.57313C16.8966 3.58344 16.8526 3.58866 16.8084 3.58866C16.6743 3.58866 16.544 3.54121 16.4415 3.4551C15.6585 2.79732 14.6515 2.43506 13.6061 2.43506C13.1537 2.43506 12.6969 2.50227 12.2484 2.63485C10.8589 3.04567 9.78678 4.13825 9.4504 5.48623C9.3242 5.99185 9.29004 6.49792 9.34877 6.99036C9.35551 7.04695 9.32745 7.08645 9.31015 7.10498C9.27976 7.13745 9.23668 7.15607 9.19195 7.15607C9.18696 7.15607 9.18182 7.15584 9.17673 7.15537C6.13512 6.88601 3.39234 5.48919 1.45359 3.22228C1.35473 3.10665 1.16515 3.12083 1.08635 3.24967C0.70669 3.87054 0.506055 4.58066 0.506055 5.30325C0.506055 6.41065 0.972797 7.45426 1.78353 8.21506C1.44259 8.138 1.11261 8.01665 0.806086 7.85436C0.657791 7.77583 0.475329 7.87677 0.473245 8.03845C0.452019 9.68357 1.46246 11.1474 2.97614 11.8066C2.94566 11.8073 2.91518 11.8076 2.88464 11.8076C2.64471 11.8076 2.40176 11.7855 2.16265 11.742C1.99565 11.7116 1.85535 11.8626 1.9072 12.0169C2.39852 13.479 3.71922 14.5568 5.29968 14.8015C3.98799 15.6408 2.4605 16.0836 0.870687 16.0836L0.37506 16.0833C0.222355 16.0833 0.0932022 16.1782 0.0542868 16.3192C0.0159529 16.458 0.0865628 16.6045 0.216782 16.6767C2.00825 17.6705 4.05167 18.1958 6.12703 18.1958C7.94365 18.1958 9.64294 17.8521 11.1777 17.1744C12.5848 16.5531 13.8281 15.665 14.8733 14.5348C15.8469 13.4819 16.6082 12.2664 17.1361 10.9222C17.6393 9.64088 17.9052 8.27368 17.9052 6.96837V6.9062C17.9052 6.69661 18.0046 6.4994 18.1781 6.36515C18.8365 5.85561 19.4098 5.25581 19.8821 4.58242C20.0068 4.40461 19.8101 4.18176 19.6049 4.26852Z" fill="white"/>
</g>
<defs>
<clipPath id="clip0_1_53">
<rect width="19.8772" height="18.9474" fill="white" transform="translate(0.0438843 0.842041)"/>
</clipPath>
</defs>
</svg>
