<svg width="27" height="26" viewBox="0 0 27 26" fill="none" xmlns="http://www.w3.org/2000/svg">
<g clip-path="url(#clip0_1_58)">
<path d="M26.4005 19.126C26.3684 19.0601 26.3385 19.0054 26.3107 18.9616C25.8508 18.1721 24.9721 17.2032 23.6751 16.0544L23.6477 16.0281L23.6339 16.0152L23.6201 16.002H23.6061C23.0175 15.4671 22.6447 15.1074 22.4886 14.9232C22.2029 14.5725 22.1389 14.2174 22.295 13.8576C22.4053 13.5858 22.8196 13.0118 23.537 12.1347C23.9143 11.6699 24.2131 11.2974 24.4338 11.0167C26.0254 8.99977 26.7154 7.7109 26.5038 7.14962L26.4215 7.01846C26.3663 6.93949 26.2237 6.86725 25.994 6.80137C25.7637 6.73563 25.4695 6.72476 25.1106 6.76857L21.1366 6.79474C21.0722 6.77299 20.9803 6.77502 20.8605 6.80137C20.7409 6.82772 20.6811 6.84095 20.6811 6.84095L20.6119 6.87389L20.557 6.91346C20.511 6.93963 20.4604 6.98565 20.4051 7.05144C20.3502 7.117 20.3042 7.19394 20.2675 7.28161C19.8348 8.34266 19.3429 9.32917 18.7908 10.2411C18.4504 10.7849 18.1378 11.2561 17.8523 11.6551C17.5672 12.054 17.328 12.3479 17.135 12.5363C16.9417 12.7248 16.7672 12.8759 16.6105 12.99C16.4541 13.1042 16.3346 13.1524 16.2519 13.1348C16.169 13.1171 16.091 13.0996 16.0171 13.0821C15.8884 13.0032 15.7849 12.8958 15.7068 12.7599C15.6284 12.624 15.5756 12.4529 15.548 12.2468C15.5206 12.0406 15.5043 11.8632 15.4997 11.7141C15.4954 11.5652 15.4974 11.3545 15.5067 11.0827C15.5163 10.8107 15.5206 10.6267 15.5206 10.5302C15.5206 10.197 15.5274 9.83526 15.5411 9.44504C15.555 9.05482 15.5663 8.74564 15.5757 8.51787C15.5851 8.28987 15.5894 8.04864 15.5894 7.79433C15.5894 7.54002 15.5732 7.34058 15.5411 7.19583C15.5094 7.05126 15.4607 6.91093 15.3966 6.77488C15.332 6.63897 15.2376 6.53384 15.1137 6.45921C14.9895 6.38466 14.8351 6.32551 14.6514 6.28156C14.1638 6.17638 13.5429 6.11948 12.7884 6.11064C11.0774 6.09313 9.97803 6.19845 9.49046 6.42645C9.29728 6.52278 9.12246 6.65441 8.96616 6.82091C8.80053 7.0139 8.77743 7.11921 8.897 7.13654C9.44904 7.21536 9.83985 7.40393 10.0699 7.70205L10.1527 7.86003C10.2172 7.97401 10.2816 8.1758 10.346 8.46512C10.4104 8.75444 10.4519 9.07449 10.4701 9.42509C10.5161 10.0653 10.5161 10.6134 10.4701 11.0693C10.4241 11.5254 10.3806 11.8805 10.3391 12.1348C10.2975 12.3891 10.2355 12.5952 10.1527 12.753C10.0699 12.9108 10.0147 13.0073 9.98707 13.0423C9.95947 13.0773 9.93646 13.0994 9.91819 13.108C9.79862 13.1517 9.67426 13.1739 9.54556 13.1739C9.41666 13.1739 9.26035 13.1125 9.0764 12.9897C8.8925 12.8668 8.70164 12.6981 8.50382 12.4833C8.306 12.2683 8.0829 11.968 7.83443 11.5822C7.58615 11.1964 7.32855 10.7405 7.06176 10.2143L6.84103 9.83277C6.70304 9.5873 6.51455 9.22989 6.27536 8.76084C6.03602 8.29162 5.82447 7.83773 5.64057 7.39928C5.56706 7.21513 5.45662 7.07494 5.30945 6.97847L5.24039 6.93889C5.19447 6.90388 5.12077 6.8667 5.01966 6.82708C4.9184 6.7875 4.81275 6.75912 4.70226 6.74166L0.921345 6.76783C0.534984 6.76783 0.272834 6.85127 0.1348 7.0179L0.0795569 7.09673C0.0519596 7.14064 0.0380402 7.21075 0.0380402 7.30727C0.0380402 7.40374 0.0656374 7.52215 0.12088 7.66234C0.672825 8.89887 1.27305 10.0914 1.92156 11.2401C2.57008 12.3889 3.13362 13.3142 3.61186 14.0153C4.0902 14.7169 4.57776 15.3791 5.07456 16.0015C5.57136 16.6241 5.90021 17.0231 6.0611 17.1984C6.22219 17.3741 6.34872 17.5054 6.4407 17.593L6.78574 17.9087C7.00651 18.1192 7.33072 18.3713 7.7585 18.665C8.18638 18.9588 8.66008 19.2482 9.17983 19.5334C9.69969 19.8181 10.3045 20.0505 10.9945 20.2302C11.6844 20.4102 12.3559 20.4823 13.0091 20.4475H14.596C14.9179 20.421 15.1617 20.3246 15.3274 20.1581L15.3823 20.0921C15.4193 20.0398 15.4538 19.9585 15.4857 19.8491C15.518 19.7395 15.5341 19.6187 15.5341 19.4874C15.5246 19.1104 15.5547 18.7706 15.6236 18.4681C15.6923 18.1657 15.7707 17.9377 15.8584 17.7841C15.946 17.6307 16.0449 17.5013 16.155 17.3963C16.2653 17.2911 16.3439 17.2274 16.39 17.2055C16.4358 17.1834 16.4724 17.1684 16.5 17.1595C16.7207 17.0893 16.9806 17.1572 17.2798 17.3635C17.5789 17.5696 17.8593 17.824 18.1217 18.1264C18.3839 18.4291 18.6989 18.7687 19.0668 19.1457C19.4349 19.5228 19.7568 19.8032 20.0327 19.9876L20.3086 20.1454C20.4928 20.2507 20.732 20.3472 21.0264 20.4349C21.3204 20.5225 21.5779 20.5444 21.799 20.5006L25.3314 20.4481C25.6808 20.4481 25.9526 20.393 26.1455 20.2836C26.3387 20.174 26.4535 20.0532 26.4905 19.9219C26.5274 19.7904 26.5294 19.6412 26.4975 19.4744C26.4648 19.3081 26.4326 19.1917 26.4005 19.126Z" fill="white"/>
</g>
<defs>
<clipPath id="clip0_1_58">
<rect width="26.5029" height="25.2632" fill="white" transform="translate(0.0380402 0.684204)"/>
</clipPath>
</defs>
</svg>
